<svg width="142" height="163" viewBox="0 0 142 163" fill="none" xmlns="http://www.w3.org/2000/svg">
<path d="M1.00027 28.1595C13.7291 26.9255 50.0018 22.9863 55.9502 41.5953C58.4253 49.3386 57.4373 61.3699 52.3002 68.1562C41.2683 82.7295 14.2617 74.4662 29.9321 56.1129C38.7204 45.82 55.7221 47.703 67.743 49.2023C85.4625 51.4123 96.4719 62.0634 107.145 75.3623C112.566 82.1161 130.477 118.927 127.878 118.396" stroke="white" stroke-width="2" stroke-linecap="round"/>
<path d="M136.242 131.063C133.588 130.422 113.429 124.865 115.8 125.865C118.903 127.175 122.24 128.204 125.161 129.891C128.616 131.886 132.522 132.979 135.731 135.341C138.548 137.413 137.985 119.025 137.151 115.911" stroke="white" stroke-width="2" stroke-linecap="round"/>
</svg>
