<svg width="126" height="120" viewBox="0 0 126 120" fill="none" xmlns="http://www.w3.org/2000/svg">
<path d="M84.5044 1.31531C88.0028 9.75649 98.2612 33.7228 86.7849 41.6696C82.0096 44.9763 73.5815 46.8108 67.8724 44.7157C55.6121 40.2167 55.6256 20.0373 71.4367 26.9177C80.3038 30.7764 82.5635 42.7878 84.0464 51.3154C86.2323 63.8855 81.2501 73.6309 74.3883 83.6989C70.9035 88.8119 49.4835 108.731 49.305 106.844" stroke="white" stroke-width="2" stroke-linecap="round"/>
<path d="M42.3931 115.202C42.2771 113.255 41.8699 98.3194 41.6809 100.148C41.4335 102.542 41.4257 105.037 40.8826 107.385C40.2399 110.163 40.3074 113.06 39.3633 115.746C38.5348 118.103 50.9832 113.883 52.9372 112.663" stroke="white" stroke-width="2" stroke-linecap="round"/>
</svg>
