<svg width="35" height="35" viewBox="0 0 34 35" fill="none" xmlns="http://www.w3.org/2000/svg">
<g clip-path="url(#clip0_370_13242)">
<path fill-rule="evenodd" clip-rule="evenodd" d="M17.0015 0.5C26.391 0.5 34.0015 8.1105 34.0015 17.5C34.0015 26.8895 26.391 34.5 17.0015 34.5C7.61196 34.5 0.00146484 26.8895 0.00146484 17.5C0.00146484 8.1105 7.61196 0.5 17.0015 0.5Z" fill="#F0B90B"/>
<path d="M9.3448 17.5L9.35706 21.9952L13.1766 24.2428V26.8745L7.12172 23.3233V16.1855L9.3448 17.5ZM9.3448 13.0048V15.6242L7.12036 14.3084V11.6889L9.3448 10.373L11.5801 11.6889L9.3448 13.0048ZM14.7717 11.6889L16.9962 10.373L19.2315 11.6889L16.9962 13.0048L14.7717 11.6889Z" fill="white"/>
<path d="M10.9519 21.0634V18.4317L13.1763 19.7476V22.367L10.9519 21.0634ZM14.7715 25.1854L16.9959 26.5013L19.2312 25.1854V27.8049L16.9959 29.1207L14.7715 27.8049V25.1854ZM22.4215 11.6889L24.6459 10.373L26.8812 11.6889V14.3084L24.6459 15.6243V13.0048L22.4215 11.6889ZM24.6459 21.9952L24.6582 17.5L26.8826 16.1841V23.3219L20.8277 26.8731V24.2414L24.6459 21.9952Z" fill="white"/>
<path d="M23.0511 21.0634L20.8267 22.367V19.7475L23.0511 18.4316V21.0634Z" fill="white"/>
<path d="M23.0508 13.9367L23.063 16.5684L19.2326 18.816V23.3221L17.0082 24.6257L14.7837 23.3221V18.816L10.9533 16.5684V13.9367L13.1872 12.6208L16.9945 14.8793L20.825 12.6208L23.0603 13.9367H23.0508ZM10.9519 9.44286L16.9959 5.87939L23.0508 9.44286L20.8263 10.7587L16.9959 8.50023L13.1763 10.7587L10.9519 9.44286Z" fill="white"/>
</g>
<defs>
<clipPath id="clip0_370_13242">
<rect width="34" height="34" fill="white" transform="translate(0 0.5)"/>
</clipPath>
</defs>
</svg>
