<svg width="28" height="28" viewBox="0 0 28 28" fill="none" xmlns="http://www.w3.org/2000/svg">
<path d="M6.41699 18.6667C12.2503 21.5834 15.7503 21.5834 21.5837 18.6667" stroke="#BCE5ED" stroke-width="1.5" stroke-linecap="round" stroke-linejoin="round"/>
<path d="M18.0833 20.4167L19.25 22.7501C19.25 22.7501 24.1162 21.2007 25.6667 18.6667C25.6667 17.5001 26.285 9.16191 22.1667 6.41675C20.4167 5.25008 17.5 4.66675 17.5 4.66675L16.3333 7.00008H14" stroke="#BCE5ED" stroke-width="1.5" stroke-linecap="round" stroke-linejoin="round"/>
<path d="M9.94932 20.4167L8.78265 22.7501C8.78265 22.7501 3.91648 21.2007 2.36598 18.6667C2.36598 17.5001 1.74765 9.16191 5.86598 6.41675C7.61598 5.25008 10.5327 4.66675 10.5327 4.66675L11.6993 7.00008H14.0327" stroke="#BCE5ED" stroke-width="1.5" stroke-linecap="round" stroke-linejoin="round"/>
<path d="M9.91699 16.3334C8.95099 16.3334 8.16699 15.2892 8.16699 14.0001C8.16699 12.7109 8.95099 11.6667 9.91699 11.6667C10.883 11.6667 11.667 12.7109 11.667 14.0001C11.667 15.2892 10.883 16.3334 9.91699 16.3334ZM18.0837 16.3334C17.1177 16.3334 16.3337 15.2892 16.3337 14.0001C16.3337 12.7109 17.1177 11.6667 18.0837 11.6667C19.0497 11.6667 19.8337 12.7109 19.8337 14.0001C19.8337 15.2892 19.0497 16.3334 18.0837 16.3334Z" stroke="#BCE5ED" stroke-width="1.5" stroke-linecap="round" stroke-linejoin="round"/>
</svg>
