<svg width="16" height="17" viewBox="0 0 16 17" fill="none" xmlns="http://www.w3.org/2000/svg">
<path d="M10.0037 9.47722H10.2704C11.0068 9.47722 11.6037 10.0742 11.6037 10.8105V12.3439C11.6037 13.0067 12.141 13.5439 12.8037 13.5439C13.4665 13.5439 14.0037 13.0075 14.0037 12.3447V5.4286C14.0037 5.07498 13.7748 4.77028 13.5248 4.52024L10.6704 1.54395M4.00374 2.21055H8.00374C8.74012 2.21055 9.33707 2.8075 9.33707 3.54388V14.2095H2.67041V3.54388C2.67041 2.8075 3.26736 2.21055 4.00374 2.21055ZM14.0037 5.54388C14.0037 6.28026 13.4068 6.87722 12.6704 6.87722C11.934 6.87722 11.3371 6.28026 11.3371 5.54388C11.3371 4.8075 11.934 4.21055 12.6704 4.21055C13.4068 4.21055 14.0037 4.8075 14.0037 5.54388Z" stroke="black"/>
<path d="M3.99902 10.2021H7.99902" stroke="black"/>
<path d="M3.99902 12.2021H7.99902" stroke="black"/>
<path d="M3.99902 8.36914H7.99902" stroke="black"/>
</svg>
