<svg width="16" height="17" viewBox="0 0 16 17" fill="none" xmlns="http://www.w3.org/2000/svg">
<path d="M10.0052 9.76921H10.2719C11.0083 9.76921 11.6052 10.3662 11.6052 11.1025V12.6359C11.6052 13.2987 12.1425 13.8359 12.8052 13.8359C13.468 13.8359 14.0052 13.2995 14.0052 12.6367V5.72059C14.0052 5.36697 13.7763 5.06227 13.5263 4.81223L10.6719 1.83594M4.00521 2.50254H8.0052C8.74158 2.50254 9.33853 3.09949 9.33853 3.83587V14.5015H2.67188V3.83587C2.67188 3.09949 3.26883 2.50254 4.00521 2.50254ZM14.0052 5.83587C14.0052 6.57225 13.4083 7.16921 12.6719 7.16921C11.9355 7.16921 11.3386 6.57225 11.3386 5.83587C11.3386 5.09949 11.9355 4.50254 12.6719 4.50254C13.4083 4.50254 14.0052 5.09949 14.0052 5.83587Z" stroke="white"/>
<path d="M4 10.4941H8" stroke="white"/>
<path d="M4 12.4941H8" stroke="white"/>
<path d="M4 8.66113H8" stroke="white"/>
</svg>
