<svg width="26" height="26" viewBox="0 0 26 26" fill="none" xmlns="http://www.w3.org/2000/svg">
<path d="M13.2469 26C13.164 26 13.0811 26 12.9976 25.9996C11.035 26.0046 9.22159 25.9528 7.45805 25.8413C5.84122 25.7391 4.36536 25.1589 3.18979 24.1635C2.05549 23.2031 1.28088 21.9044 0.887564 20.304C0.545248 18.9106 0.5271 17.5429 0.509717 16.22C0.497109 15.2708 0.48412 14.1461 0.481445 13.0023C0.48412 11.8538 0.497109 10.7291 0.509717 9.77991C0.5271 8.45721 0.545248 7.08949 0.887564 5.69597C1.28088 4.09557 2.05549 2.79687 3.18979 1.83639C4.36536 0.840994 5.84122 0.260777 7.45824 0.158619C9.22178 0.0473363 11.0356 -0.00463533 13.0023 0.000323788C14.9655 -0.00404024 16.7783 0.0473363 18.5419 0.158619C20.1587 0.260777 21.6346 0.840994 22.8101 1.83639C23.9446 2.79687 24.719 4.09557 25.1124 5.69597C25.4547 7.08929 25.4728 8.45721 25.4902 9.77991C25.5028 10.7291 25.516 11.8538 25.5185 12.9976V13.0023C25.516 14.1461 25.5028 15.2708 25.4902 16.22C25.4728 17.5427 25.4549 18.9104 25.1124 20.304C24.719 21.9044 23.9446 23.2031 22.8101 24.1635C21.6346 25.1589 20.1587 25.7391 18.5419 25.8413C16.853 25.948 15.1181 26 13.2469 26ZM12.9976 23.9683C14.9283 23.9731 16.701 23.9225 18.4231 23.8138C19.6456 23.7367 20.7056 23.3247 21.574 22.5893C22.3767 21.9095 22.9295 20.9716 23.217 19.8017C23.502 18.6419 23.5184 17.3965 23.5343 16.1922C23.5467 15.2494 23.5597 14.1326 23.5624 13C23.5597 11.8671 23.5467 10.7505 23.5343 9.80768C23.5184 8.60341 23.502 7.35807 23.217 6.19803C22.9295 5.02808 22.3767 4.09021 21.574 3.41041C20.7056 2.67527 19.6456 2.26327 18.4231 2.18611C16.701 2.0772 14.9283 2.02702 13.0022 2.03138C11.0719 2.02662 9.29895 2.0772 7.57687 2.18611C6.35431 2.26327 5.29431 2.67527 4.42591 3.41041C3.62323 4.09021 3.0704 5.02808 2.78291 6.19803C2.4979 7.35807 2.48147 8.60321 2.46562 9.80768C2.4532 10.7513 2.44021 11.8687 2.43754 13.0023C2.44021 14.131 2.4532 15.2486 2.46562 16.1922C2.48147 17.3965 2.4979 18.6419 2.78291 19.8017C3.0704 20.9716 3.62323 21.9095 4.42591 22.5893C5.29431 23.3245 6.35431 23.7365 7.57687 23.8136C9.29895 23.9225 11.0722 23.9733 12.9976 23.9683ZM12.951 19.3476C9.58052 19.3476 6.83817 16.5001 6.83817 13C6.83817 9.49982 9.58052 6.65229 12.951 6.65229C16.3216 6.65229 19.0638 9.49982 19.0638 13C19.0638 16.5001 16.3216 19.3476 12.951 19.3476ZM12.951 8.68355C10.659 8.68355 8.79427 10.62 8.79427 13C8.79427 15.3799 10.659 17.3164 12.951 17.3164C15.2431 17.3164 17.1077 15.3799 17.1077 13C17.1077 10.62 15.2431 8.68355 12.951 8.68355ZM19.7484 4.62103C18.9383 4.62103 18.2813 5.30301 18.2813 6.14448C18.2813 6.98594 18.9383 7.66792 19.7484 7.66792C20.5587 7.66792 21.2155 6.98594 21.2155 6.14448C21.2155 5.30301 20.5587 4.62103 19.7484 4.62103Z" fill="#BCE5ED"/>
</svg>
