<svg width="16" height="10" viewBox="0 0 16 10" fill="none" xmlns="http://www.w3.org/2000/svg">
<path fill-rule="evenodd" clip-rule="evenodd" d="M10.0609 1.40241C10.0813 1.32628 10.1165 1.25493 10.1645 1.19242C10.2125 1.12991 10.2724 1.07747 10.3406 1.0381C10.4089 0.998722 10.4843 0.973185 10.5624 0.962943C10.6406 0.952701 10.72 0.957955 10.7961 0.978406L14.6201 2.00321C14.6963 2.02354 14.7677 2.05869 14.8303 2.10666C14.8929 2.15462 14.9454 2.21446 14.9849 2.28274C15.0243 2.35103 15.0499 2.42642 15.0602 2.5046C15.0705 2.58279 15.0653 2.66224 15.0449 2.73841L14.0201 6.56241C13.9769 6.71377 13.876 6.84211 13.7391 6.91977C13.6022 6.99744 13.4403 7.0182 13.2882 6.97759C13.1362 6.93697 13.0062 6.83824 12.9262 6.70266C12.8463 6.56709 12.8228 6.40553 12.8609 6.25281L13.5089 3.83521C11.7561 4.91246 10.2349 6.32733 9.03367 7.99761C8.98292 8.06822 8.91743 8.12696 8.84173 8.16976C8.76603 8.21255 8.68194 8.23838 8.59527 8.24546C8.5086 8.25254 8.42142 8.24069 8.33979 8.21074C8.25815 8.18079 8.184 8.13345 8.12247 8.07201L5.59927 5.54801L1.82327 9.32401C1.71005 9.43325 1.55846 9.49366 1.40115 9.49222C1.24383 9.49077 1.09337 9.4276 0.982177 9.3163C0.870984 9.20501 0.807953 9.05449 0.806661 8.89717C0.805369 8.73985 0.865918 8.58832 0.975267 8.47521L5.17527 4.27521C5.28777 4.16285 5.44027 4.09973 5.59927 4.09973C5.75827 4.09973 5.91077 4.16285 6.02327 4.27521L8.48247 6.73361C9.71429 5.16488 11.2166 3.82894 12.9185 2.78881L10.4849 2.13681C10.4087 2.11639 10.3374 2.08117 10.2749 2.03317C10.2124 1.98517 10.1599 1.92532 10.1206 1.85704C10.0812 1.78877 10.0556 1.71341 10.0454 1.63526C10.0352 1.55712 10.0404 1.47852 10.0609 1.40241Z" fill="white"/>
</svg>
