<svg width="15" height="9" viewBox="0 0 15 9" fill="none" xmlns="http://www.w3.org/2000/svg">
<path fill-rule="evenodd" clip-rule="evenodd" d="M9.56087 0.756562C9.58129 0.680439 9.6165 0.609086 9.66451 0.546576C9.71251 0.484067 9.77236 0.431628 9.84063 0.392253C9.9089 0.352879 9.98426 0.327341 10.0624 0.317099C10.1406 0.306858 10.22 0.312112 10.2961 0.332562L14.1201 1.35736C14.1963 1.3777 14.2677 1.41285 14.3303 1.46082C14.3929 1.50878 14.4454 1.56862 14.4849 1.6369C14.5243 1.70518 14.5499 1.78057 14.5602 1.85876C14.5705 1.93695 14.5653 2.0164 14.5449 2.09256L13.5201 5.91656C13.4769 6.06792 13.376 6.19627 13.2391 6.27393C13.1022 6.35159 12.9403 6.37236 12.7882 6.33174C12.6362 6.29113 12.5062 6.1924 12.4262 6.05682C12.3463 5.92124 12.3228 5.75968 12.3609 5.60696L13.0089 3.18936C11.2561 4.26661 9.73488 5.68149 8.53367 7.35176C8.48292 7.42238 8.41743 7.48112 8.34173 7.52391C8.26603 7.56671 8.18194 7.59254 8.09527 7.59962C8.0086 7.60669 7.92142 7.59485 7.83979 7.5649C7.75815 7.53495 7.684 7.48761 7.62247 7.42616L5.09927 4.90216L1.32327 8.67816C1.21005 8.78741 1.05846 8.84781 0.901146 8.84637C0.743828 8.84493 0.59337 8.78176 0.482177 8.67046C0.370984 8.55916 0.307953 8.40864 0.306661 8.25133C0.305369 8.09401 0.365918 7.94247 0.475267 7.82936L4.67527 3.62936C4.78777 3.517 4.94027 3.45389 5.09927 3.45389C5.25827 3.45389 5.41077 3.517 5.52327 3.62936L7.98247 6.08776C9.21429 4.51903 10.7166 3.18309 12.4185 2.14296L9.98487 1.49096C9.90874 1.47054 9.83739 1.43533 9.77488 1.38732C9.71237 1.33932 9.65993 1.27947 9.62056 1.2112C9.58118 1.14293 9.55565 1.06757 9.5454 0.98942C9.53516 0.911275 9.54042 0.832677 9.56087 0.756562Z" fill="#3BB9E5"/>
</svg>
