<svg width="188" height="32" viewBox="0 0 188 32" fill="none" xmlns="http://www.w3.org/2000/svg">
<g clip-path="url(#clip0_913_3851)">
<path d="M22.9175 14.4516C22.9175 20.8387 18.3851 23.0968 13.0227 23.0968C9.44788 23.0968 6.57521 22.129 4.78778 20.1935V22.8387H0V0.129028H4.78778V8.70967C6.57521 6.77419 9.51171 5.80645 13.0227 5.80645C18.3851 5.80645 22.9175 8.06451 22.9175 14.4516ZM18.1297 14.4516C18.1297 11.0968 15.7677 9.87096 11.4907 9.87096C7.21358 9.87096 4.85161 11.1613 4.85161 14.4516C4.85161 17.7419 7.21358 19.0323 11.4907 19.0323C15.7677 19.0323 18.1297 17.7419 18.1297 14.4516Z" fill="white"/>
<path d="M68.3048 0.129028V32H57.261L35.7479 8.06451V32H27.6406V0.129028H38.6844L60.1975 24.0645V0.129028H68.3048Z" fill="white"/>
<path d="M88.4147 16.0645L70.668 0.129028H81.8394L93.9046 11.0323L105.97 0.129028H117.141L99.3946 16.0645L117.141 32H105.97L93.9046 21.0323L81.8394 32H70.668L88.4147 16.0645Z" fill="white"/>
<path d="M157.55 6.96774H142.229V32H134.122V6.96774H118.801V0.129028H157.55V6.96774Z" fill="white"/>
<path d="M22.9175 27.0968H0V31.9355H22.9175V27.0968Z" fill="white"/>
<path d="M187.809 5.16129L161.316 31.9355L156.465 26.9677L182.957 0.193548L188 0L187.809 5.16129Z" fill="white"/>
<path d="M187.999 6.96774H186.021H181.105H176.253H168.721V0H183.148H187.999V4.96774V6.96774Z" fill="white"/>
<path d="M188 19.4839H181.105V11.9355V6.96774V2.06452V0H188V4.96774V19.4839Z" fill="white"/>
</g>
<defs>
<clipPath id="clip0_913_3851">
<rect width="188" height="32" fill="white"/>
</clipPath>
</defs>
</svg>
