<svg width="434" height="74" viewBox="0 0 434 74" fill="none" xmlns="http://www.w3.org/2000/svg">
<g clip-path="url(#clip0_900_3820)">
<path d="M52.9053 33.4193C52.9053 48.1895 42.4421 53.4112 30.0632 53.4112C21.8105 53.4112 15.1789 51.1733 11.0526 46.6975V52.8145H0V0.29834H11.0526V20.1411C15.1789 15.6653 21.9579 13.4274 30.0632 13.4274C42.4421 13.4274 52.9053 18.6491 52.9053 33.4193ZM41.8526 33.4193C41.8526 25.6612 36.4 22.8266 26.5263 22.8266C16.6526 22.8266 11.2 25.8104 11.2 33.4193C11.2 41.0282 16.6526 44.012 26.5263 44.012C36.4 44.012 41.8526 41.0282 41.8526 33.4193Z" fill="white"/>
<path d="M157.684 0.29834V74H132.189L82.5263 18.6491V74H63.8105V0.29834H89.3053L138.968 55.6491V0.29834H157.684Z" fill="white"/>
<path d="M204.105 37.1491L163.137 0.29834H188.926L216.779 25.5121L244.631 0.29834H270.421L229.453 37.1491L270.421 74H244.631L216.779 48.6371L188.926 74H163.137L204.105 37.1491Z" fill="white"/>
<path d="M363.706 16.1129H328.337V74H309.621V16.1129H274.253V0.29834H363.706V16.1129Z" fill="white"/>
<path d="M52.9053 62.6614H0V73.8509H52.9053V62.6614Z" fill="#BCE5ED"/>
<path d="M433.558 11.9355L372.4 73.8508L361.2 62.3629L422.358 0.447581L434 0L433.558 11.9355Z" fill="#BCE5ED"/>
<path d="M434 16.1129H429.432H418.085H406.885H389.495V0H422.8H434V11.4879V16.1129Z" fill="#BCE5ED"/>
<path d="M434 45.0565H418.084V27.6008V16.1129V4.77419V0H434V11.4879V45.0565Z" fill="#BCE5ED"/>
</g>
<defs>
<clipPath id="clip0_900_3820">
<rect width="434" height="74" fill="white"/>
</clipPath>
</defs>
</svg>
