<svg width="84" height="26" viewBox="0 0 84 26" fill="none" xmlns="http://www.w3.org/2000/svg">
<g clip-path="url(#clip0_913_4035)">
<path d="M3.85 23.43C3.87 20.45 4.34 17.47 4.72 14.52C5.14 11.22 5.63 7.92 5.84 4.59L1.94 5.36C3.21 8.91 4.49 12.46 5.86 15.97C7.03 18.97 8.21 22.1 10.51 24.43C11.23 25.16 12.83 24.68 13.55 24.24C14.87 23.45 15.58 22.23 15.86 20.75C16.21 18.95 16.29 17.07 16.48 15.25C16.9 11.27 17.54 7.24 17.73 3.24C17.81 1.64 14.03 2.44 13.82 3.73C13.24 7.29 13.04 10.95 12.67 14.54C12.49 16.27 12.31 18.01 12.13 19.74C12.03 20.67 12.03 22.52 11.11 23.07L14.15 22.88C11.88 20.58 10.78 17.49 9.63 14.53C8.31 11.14 7.08 7.71 5.84 4.29C5.39 3.05 2.02 3.86 1.94 5.06C1.74 8.38 1.27 11.68 0.86 14.98C0.48 17.95 0.01 20.94 0 23.91C0 25.5 3.84 24.69 3.85 23.43Z" fill="white"/>
<path d="M24 8.19C24 12.59 24.17 16.99 24.27 21.39C24.3 22.46 24.53 23.51 25.61 23.98C27.04 24.6 28.93 24.01 30.38 23.7C33.34 23.07 36.2 22.04 38.89 20.65C39.38 20.4 39.94 19.71 39.35 19.27C38.76 18.83 37.62 19.04 36.98 19.32C34.72 20.33 32.41 21.17 29.99 21.71C29.52 21.81 29.03 21.85 28.57 21.98C28.22 22.01 28.23 22.03 28.6 22.05C28.56 22.02 28.52 21.99 28.49 21.95C28.47 21.81 28.3 21.58 28.26 21.43C28.07 20.69 28.13 19.85 28.11 19.09C28.01 15.12 27.86 11.14 27.85 7.17C27.85 6.37 26.08 6.61 25.67 6.72C24.95 6.91 24 7.35 24 8.2V8.19Z" fill="white"/>
<path d="M31.2301 15.4C32.4901 14.82 33.7501 14.24 35.0101 13.65C35.3501 13.49 35.7701 13.27 35.9901 12.94C36.1301 12.72 36.2001 12.4 35.9901 12.19C35.7401 11.95 35.3401 11.87 35.0101 11.87C34.5301 11.87 34.0301 11.96 33.5801 12.15C32.3101 12.72 31.0301 13.29 29.7601 13.86C29.4101 14.02 28.9801 14.25 28.7601 14.59C28.6101 14.82 28.5401 15.14 28.7601 15.36C29.0201 15.61 29.4201 15.69 29.7701 15.69C30.2601 15.69 30.7801 15.61 31.2301 15.4Z" fill="white"/>
<path d="M27.14 8.25C27.21 8.21 27.28 8.18 27.35 8.14C27.68 7.96 26.91 8.35 27.22 8.21C27.38 8.14 27.54 8.06 27.7 7.98C28.1 7.79 28.5 7.62 28.91 7.44C29.89 7.02 30.89 6.61 31.88 6.2C33.67 5.46 35.52 4.76 37.21 3.79C37.75 3.48 38.32 2.7 37.54 2.31C36.72 1.9 35.59 2.27 34.85 2.67C34.78 2.71 34.49 2.86 34.82 2.69C35.15 2.52 34.82 2.69 34.76 2.72C34.6 2.8 34.44 2.87 34.28 2.94C33.88 3.12 33.47 3.3 33.07 3.47C32.08 3.89 31.09 4.3 30.1 4.7C28.29 5.44 26.44 6.14 24.73 7.1C24.17 7.41 23.59 8.23 24.39 8.63C25.19 9.03 26.41 8.68 27.17 8.26L27.14 8.25Z" fill="white"/>
<path d="M47.9001 23.72C52.3301 16.22 57.6001 9.05 60.7901 0.879998C61.0901 0.109998 59.7001 -0.0200024 59.3001 -2.43855e-06C58.5401 0.0399976 57.2901 0.339998 56.8901 1.09C54.5601 5.46 52.4101 9.89 49.8401 14.13C47.9101 17.32 45.8401 20.42 43.9501 23.63C43.4501 24.47 44.3801 24.85 45.1001 24.87C45.9801 24.9 47.4001 24.55 47.9001 23.71V23.72Z" fill="white"/>
<path d="M43.9598 4.5C46.5998 8.1 49.4498 11.55 52.2798 15.01C55.1098 18.47 57.7598 22.12 60.7098 25.48C61.5698 26.47 65.2998 25.35 64.4298 23.91C63.3298 22.08 61.9398 20.43 60.6098 18.77C59.1598 16.95 57.6898 15.16 56.2198 13.36C53.3898 9.9 50.5398 6.45 47.8998 2.85C47.0498 1.7 42.9598 3.13 43.9698 4.51L43.9598 4.5Z" fill="white"/>
<path d="M65.7399 4.84C71.0099 4.17 76.4199 4.62 81.6499 3.66C82.3799 3.53 83.7499 3.2 83.9199 2.3C84.0899 1.4 82.7199 1.41 82.1999 1.44C79.6299 1.62 77.0699 1.81 74.4899 1.92C71.7599 2.03 69.0299 2.15 66.3199 2.49C65.5499 2.59 64.0899 3.01 63.9099 3.93C63.7299 4.85 65.1799 4.91 65.7399 4.84Z" fill="white"/>
<path d="M72.68 3.92C72.86 10.43 73.14 16.94 73.52 23.45C73.59 24.69 77.47 23.9 77.38 22.41C77 15.91 76.72 9.39 76.54 2.88C76.51 1.67 72.64 2.42 72.68 3.92Z" fill="white"/>
</g>
<defs>
<clipPath id="clip0_913_4035">
<rect width="83.94" height="25.85" fill="white"/>
</clipPath>
</defs>
</svg>
