<svg width="22" height="28" viewBox="0 0 22 28" fill="none" xmlns="http://www.w3.org/2000/svg">
<path d="M21.1951 12.6085C21.1951 18.2312 17.1626 20.219 12.3919 20.219C9.21133 20.219 6.65556 19.3671 5.06529 17.6633L5.06529 19.9919H0.805664L0.805664 0L5.06529 0L5.06529 7.55374C6.65556 5.84989 9.26813 4.99797 12.3919 4.99797C17.1626 4.99797 21.1951 6.98579 21.1951 12.6085ZM16.9355 12.6085C16.9355 9.65516 14.834 8.57606 11.0288 8.57606C7.22351 8.57606 5.12209 9.71196 5.12209 12.6085C5.12209 15.5051 7.22351 16.641 11.0288 16.641C14.834 16.641 16.9355 15.5051 16.9355 12.6085Z" fill="white"/>
<path d="M21.1951 23.7405L0.805664 23.7405L0.805664 28.0001L21.1951 28.0001V23.7405Z" fill="#BCE5ED"/>
</svg>
