<svg width="15" height="81" viewBox="0 0 15 81" fill="none" xmlns="http://www.w3.org/2000/svg">
<path d="M1 4.572L11.854 4.572L11.854 0.342L13.348 0.342L13.348 10.548L11.854 10.548L11.854 6.282L1 6.282L1 4.572ZM0.783999 14.6046C0.783999 13.6446 0.957999 12.8346 1.306 12.1746C1.666 11.5266 2.212 11.0286 2.944 10.6806C3.676 10.3446 4.606 10.1766 5.734 10.1766C6.874 10.1766 7.804 10.3446 8.524 10.6806C9.256 11.0286 9.796 11.5266 10.144 12.1746C10.504 12.8346 10.684 13.6446 10.684 14.6046C10.684 15.5646 10.504 16.3686 10.144 17.0166C9.796 17.6766 9.256 18.1746 8.524 18.5106C7.804 18.8466 6.874 19.0146 5.734 19.0146C4.606 19.0146 3.676 18.8466 2.944 18.5106C2.212 18.1746 1.666 17.6766 1.306 17.0166C0.957999 16.3686 0.783999 15.5646 0.783999 14.6046ZM2.116 14.6046C2.116 15.2166 2.236 15.7266 2.476 16.1346C2.716 16.5426 3.088 16.8486 3.592 17.0526C4.108 17.2686 4.756 17.3766 5.536 17.3766L5.932 17.3766C6.724 17.3766 7.372 17.2686 7.876 17.0526C8.38 16.8486 8.752 16.5426 8.992 16.1346C9.232 15.7266 9.352 15.2166 9.352 14.6046C9.352 13.9926 9.232 13.4766 8.992 13.0566C8.752 12.6486 8.38 12.3426 7.876 12.1386C7.372 11.9346 6.724 11.8326 5.932 11.8326L5.536 11.8326C4.756 11.8326 4.108 11.9346 3.592 12.1386C3.088 12.3426 2.716 12.6486 2.476 13.0566C2.236 13.4766 2.116 13.9926 2.116 14.6046ZM0.999999 20.9822L14.014 20.9822L14.014 22.5662L5.878 22.5662L10.468 26.5802L10.468 28.4522L6.796 25.2122L0.999999 28.6322L0.999999 26.8142L5.626 24.1862L3.988 22.5662L0.999999 22.5662L0.999999 20.9822ZM0.783999 33.4107C0.783999 32.4747 0.957999 31.6827 1.306 31.0347C1.666 30.3987 2.212 29.9127 2.944 29.5767C3.676 29.2527 4.606 29.0907 5.734 29.0907C6.874 29.0907 7.804 29.2527 8.524 29.5767C9.256 29.9127 9.796 30.4047 10.144 31.0527C10.504 31.7007 10.684 32.5107 10.684 33.4827C10.684 34.3707 10.51 35.1147 10.162 35.7147C9.826 36.3147 9.316 36.7647 8.632 37.0647C7.96 37.3767 7.114 37.5327 6.094 37.5327L5.338 37.5327L5.338 30.7287C4.582 30.7527 3.958 30.8607 3.466 31.0527C2.986 31.2567 2.632 31.5567 2.404 31.9527C2.188 32.3487 2.08 32.8467 2.08 33.4467C2.08 33.8547 2.128 34.2087 2.224 34.5087C2.332 34.8207 2.482 35.0787 2.674 35.2827C2.866 35.4987 3.094 35.6607 3.358 35.7687C3.622 35.8767 3.91 35.9367 4.222 35.9487L4.222 37.4967C3.718 37.4847 3.25 37.3887 2.818 37.2087C2.398 37.0287 2.038 36.7647 1.738 36.4167C1.438 36.0687 1.204 35.6427 1.036 35.1387C0.867998 34.6347 0.783999 34.0587 0.783999 33.4107ZM6.526 30.7647L6.526 35.8947C7.054 35.8947 7.498 35.8347 7.858 35.7147C8.218 35.5947 8.512 35.4207 8.74 35.1927C8.968 34.9767 9.13 34.7187 9.226 34.4187C9.334 34.1307 9.388 33.8007 9.388 33.4287C9.388 32.8767 9.286 32.4087 9.082 32.0247C8.878 31.6407 8.566 31.3467 8.146 31.1427C7.726 30.9387 7.186 30.8127 6.526 30.7647ZM0.999998 39.492L10.468 39.492L10.468 40.77L9.046 40.914L9.046 41.04C9.43 41.292 9.742 41.574 9.982 41.886C10.222 42.21 10.396 42.564 10.504 42.948C10.624 43.344 10.684 43.764 10.684 44.208C10.684 44.808 10.582 45.33 10.378 45.774C10.174 46.23 9.844 46.584 9.388 46.836C8.932 47.1 8.314 47.232 7.534 47.232L0.999998 47.232L0.999998 45.648L7.318 45.648C7.714 45.648 8.038 45.594 8.29 45.486C8.542 45.39 8.74 45.252 8.884 45.072C9.028 44.904 9.13 44.694 9.19 44.442C9.25 44.202 9.28 43.932 9.28 43.632C9.28 43.188 9.172 42.768 8.956 42.372C8.74 41.976 8.428 41.658 8.02 41.418C7.612 41.19 7.126 41.076 6.562 41.076L0.999998 41.076L0.999998 39.492ZM12.25 53.3963L14.014 53.3963L14.014 54.9803L12.25 54.9803L12.25 53.3963ZM0.999998 53.3963L10.468 53.3963L10.468 54.9803L0.999998 54.9803L0.999998 53.3963ZM0.999997 57.4393L10.468 57.4393L10.468 58.7173L9.046 58.8613L9.046 58.9873C9.43 59.2393 9.742 59.5213 9.982 59.8333C10.222 60.1573 10.396 60.5113 10.504 60.8953C10.624 61.2913 10.684 61.7113 10.684 62.1553C10.684 62.7553 10.582 63.2773 10.378 63.7213C10.174 64.1773 9.844 64.5313 9.388 64.7833C8.932 65.0473 8.314 65.1793 7.534 65.1793L0.999997 65.1793L0.999997 63.5953L7.318 63.5953C7.714 63.5953 8.038 63.5413 8.29 63.4333C8.542 63.3373 8.74 63.1993 8.884 63.0193C9.028 62.8513 9.13 62.6413 9.19 62.3893C9.25 62.1493 9.28 61.8793 9.28 61.5793C9.28 61.1353 9.172 60.7153 8.956 60.3193C8.74 59.9233 8.428 59.6053 8.02 59.3653C7.612 59.1373 7.126 59.0233 6.562 59.0233L0.999997 59.0233L0.999997 57.4393ZM0.999997 67.9598L9.136 67.9598L9.136 66.5558L10.468 66.5558L10.468 67.9598L11.98 67.9598C12.352 67.9598 12.7 68.0138 13.024 68.1218C13.36 68.2298 13.63 68.4338 13.834 68.7338C14.05 69.0338 14.158 69.4538 14.158 69.9938C14.158 70.1618 14.146 70.3238 14.122 70.4798C14.11 70.6478 14.086 70.8038 14.05 70.9478C14.026 71.1038 13.996 71.2418 13.96 71.3618L12.826 71.3618L12.826 70.4078C12.826 70.1078 12.748 69.8858 12.592 69.7418C12.448 69.6098 12.238 69.5438 11.962 69.5438L10.468 69.5438L10.468 71.3618L9.136 71.3618L9.136 69.5438L0.999997 69.5438L0.999997 67.9598ZM0.783997 76.4269C0.783997 75.4669 0.957997 74.6569 1.306 73.9969C1.666 73.3489 2.212 72.8509 2.944 72.5029C3.676 72.1669 4.606 71.9989 5.734 71.9989C6.874 71.9989 7.804 72.1669 8.524 72.5029C9.256 72.8509 9.796 73.3489 10.144 73.9969C10.504 74.6569 10.684 75.4669 10.684 76.4269C10.684 77.3869 10.504 78.1909 10.144 78.8389C9.796 79.4989 9.256 79.9969 8.524 80.3329C7.804 80.6689 6.874 80.8369 5.734 80.8369C4.606 80.8369 3.676 80.6689 2.944 80.3329C2.212 79.9969 1.666 79.4989 1.306 78.8389C0.957997 78.1909 0.783997 77.3869 0.783997 76.4269ZM2.116 76.4269C2.116 77.0389 2.236 77.5489 2.476 77.9569C2.716 78.3649 3.088 78.6709 3.592 78.8749C4.108 79.0909 4.756 79.1989 5.536 79.1989L5.932 79.1989C6.724 79.1989 7.372 79.0909 7.876 78.8749C8.38 78.6709 8.752 78.3649 8.992 77.9569C9.232 77.5489 9.352 77.0389 9.352 76.4269C9.352 75.8149 9.232 75.2989 8.992 74.8789C8.752 74.4709 8.38 74.1649 7.876 73.9609C7.372 73.7569 6.724 73.6549 5.932 73.6549L5.536 73.6549C4.756 73.6549 4.108 73.7569 3.592 73.9609C3.088 74.1649 2.716 74.4709 2.476 74.8789C2.236 75.2989 2.116 75.8149 2.116 76.4269Z" fill="white"/>
</svg>
