<svg width="481" height="632" viewBox="0 0 481 632" fill="none" xmlns="http://www.w3.org/2000/svg">
<mask id="path-1-inside-1_900_3816" fill="white">
<path fill-rule="evenodd" clip-rule="evenodd" d="M-2.56625 0H308.068H359.308H481H481V123.345V173.004H481V483.77H308.068V297.951L-186.707 792.934L-310 669.589L186.377 173.004H-2.56625V0Z"/>
</mask>
<path d="M-2.56625 0V-1H-3.56625V0H-2.56625ZM481 0H482V-1H481V0ZM481 173.004V174.004H482V173.004H481ZM481 173.004V172.004H480V173.004H481ZM481 483.77V484.77H482V483.77H481ZM308.068 483.77H307.068V484.77H308.068V483.77ZM308.068 297.951H309.068V295.536L307.361 297.244L308.068 297.951ZM-186.707 792.934L-187.414 793.641L-186.707 794.348L-185.999 793.641L-186.707 792.934ZM-310 669.589L-310.707 668.882L-311.414 669.589L-310.707 670.296L-310 669.589ZM186.377 173.004L187.084 173.711L188.791 172.004H186.377V173.004ZM-2.56625 173.004H-3.56625V174.004H-2.56625V173.004ZM308.068 -1H-2.56625V1H308.068V-1ZM308.068 1H359.308V-1H308.068V1ZM359.308 1H481V-1H359.308V1ZM481 -1H481V1H481V-1ZM482 123.345V0H480V123.345H482ZM482 173.004V123.345H480V173.004H482ZM481 174.004H481V172.004H481V174.004ZM480 173.004V483.77H482V173.004H480ZM481 482.77H308.068V484.77H481V482.77ZM309.068 483.77V297.951H307.068V483.77H309.068ZM-185.999 793.641L308.776 298.658L307.361 297.244L-187.414 792.227L-185.999 793.641ZM-310.707 670.296L-187.414 793.641L-185.999 792.227L-309.293 668.882L-310.707 670.296ZM185.67 172.297L-310.707 668.882L-309.293 670.296L187.084 173.711L185.67 172.297ZM-2.56625 174.004H186.377V172.004H-2.56625V174.004ZM-3.56625 0V173.004H-1.56625V0H-3.56625Z" fill="#0B2D44" mask="url(#path-1-inside-1_900_3816)"/>
</svg>
